<svg xmlns="http://www.w3.org/2000/svg" xmlns:xlink="http://www.w3.org/1999/xlink" width="500" zoomAndPan="magnify" viewBox="0 0 375 374.999991" height="500" preserveAspectRatio="xMidYMid meet" version="1.0"><defs><clipPath id="bd02fe1af4"><path d="M 70 78 L 304 78 L 304 297.457031 L 70 297.457031 Z M 70 78 " clip-rule="nonzero"/></clipPath><clipPath id="f3f2f1dbe3"><path d="M 70 78 L 304 78 L 304 297.457031 L 70 297.457031 Z M 70 78 " clip-rule="nonzero"/></clipPath></defs><g clip-path="url(#bd02fe1af4)"><path fill="#ffffff" d="M 298.3125 147.609375 C 292.820312 132.875 283.1875 119.078125 271.191406 108.75 C 259.742188 98.898438 245.894531 91.269531 230.019531 86.078125 C 215.59375 81.363281 199.847656 78.742188 183.226562 78.289062 C 161.457031 77.703125 130.578125 80.910156 107.09375 99.539062 C 93.417969 110.386719 83.371094 125.433594 77.234375 144.257812 C 71.769531 161.015625 69.773438 179.980469 71.464844 199.113281 C 73.109375 217.75 77.679688 233.730469 85.050781 246.621094 C 93.886719 262.054688 107.46875 273.667969 122.308594 278.480469 C 134.925781 282.566406 148.988281 281.640625 160.296875 276.054688 C 160.457031 277.761719 160.28125 279.515625 160.085938 281.355469 C 160.007812 282.148438 159.921875 282.972656 159.863281 283.785156 C 159.582031 287.917969 160.339844 290.960938 162.183594 293.101562 C 164.664062 295.964844 168.566406 296.632812 172.425781 296.921875 C 175.769531 297.171875 179.140625 297.296875 182.507812 297.296875 C 185.617188 297.296875 188.726562 297.1875 191.808594 296.976562 C 193.921875 296.828125 196.132812 296.5625 197.851562 295.179688 C 200.492188 293.054688 200.621094 289.453125 200.464844 287.492188 C 200.375 286.4375 200.199219 285.402344 200.019531 284.398438 C 199.773438 283 199.542969 281.679688 199.5625 280.355469 C 199.585938 277.863281 200.636719 275.328125 202.410156 273.382812 C 203.929688 275.277344 204.878906 277.539062 205.109375 279.859375 C 205.234375 281.105469 205.203125 282.425781 205.164062 283.824219 C 205.070312 287.421875 204.976562 291.144531 207.742188 293.707031 C 209.582031 295.402344 212.054688 295.875 214.457031 296.140625 C 220.3125 296.761719 226.222656 296.511719 232.007812 295.390625 C 234.875 294.835938 238.90625 293.71875 240.742188 290.390625 C 242.34375 287.507812 241.667969 284.375 241.015625 281.339844 C 240.675781 279.746094 240.320312 278.09375 240.335938 276.570312 C 240.378906 273.683594 241.957031 270.820312 244.417969 269.097656 C 246.746094 270.90625 248.34375 273.523438 248.742188 276.226562 C 248.9375 277.535156 248.925781 278.992188 248.914062 280.398438 C 248.890625 283.703125 248.867188 287.117188 251.292969 289.628906 C 253.820312 292.234375 257.664062 292.351562 261.445312 292.09375 C 265.851562 291.792969 270.3125 291.382812 274.699219 290.878906 C 277.570312 290.550781 280.4375 289.921875 281.945312 287.5625 C 282.921875 286.050781 283.007812 284.261719 283.078125 282.828125 L 283.902344 266.191406 C 290.464844 261.804688 295.007812 254.894531 296.101562 247.585938 C 296.851562 242.5625 296.175781 237.511719 295.515625 232.625 C 295.027344 228.964844 294.519531 225.183594 294.636719 221.503906 C 294.835938 215.242188 296.839844 209.070312 298.78125 203.105469 C 299.726562 200.183594 300.710938 197.167969 301.480469 194.136719 C 305.25 179.371094 304.160156 163.28125 298.3125 147.609375 " fill-opacity="1" fill-rule="nonzero"/></g><path fill="#000000" d="M 145.207031 89.378906 C 146.253906 89.007812 145.699219 87.625 144.675781 87.894531 C 113.386719 96.011719 88.570312 123.515625 80.890625 154.433594 C 79.734375 159.074219 78.945312 163.785156 78.558594 168.550781 C 78.203125 172.917969 77.800781 177.953125 79.09375 182.199219 C 79.148438 182.386719 79.53125 182.371094 79.570312 182.175781 C 80.320312 178.414062 80.144531 174.414062 80.484375 170.597656 C 80.851562 166.476562 81.492188 162.375 82.363281 158.328125 C 84.054688 150.476562 86.777344 142.828125 90.390625 135.65625 C 97.523438 121.507812 108.417969 109.460938 121.625 100.734375 C 128.953125 95.894531 136.957031 92.328125 145.207031 89.378906 Z M 204.621094 201.804688 C 204.621094 182.148438 192.464844 166.21875 177.472656 166.21875 C 162.480469 166.21875 150.324219 182.148438 150.324219 201.804688 C 150.324219 221.457031 162.480469 237.390625 177.472656 237.390625 C 192.464844 237.390625 204.621094 221.457031 204.621094 201.804688 Z M 205.761719 174.765625 C 206.1875 175.46875 207.617188 175.058594 207.273438 174.191406 C 202.382812 161.804688 188.6875 154.050781 175.609375 154.460938 C 162.769531 154.867188 149.976562 163.042969 145.136719 175.128906 C 144.859375 175.824219 145.984375 176.082031 146.285156 175.507812 C 152.117188 164.367188 163.5625 156.339844 176.433594 156.546875 C 188.785156 156.746094 199.515625 164.453125 205.761719 174.765625 Z M 240.261719 255.691406 C 241.285156 254.917969 240.101562 254.011719 239.183594 254.332031 C 236.6875 255.222656 234.175781 255.867188 231.503906 255.589844 C 228.855469 255.3125 226.761719 254.171875 224.546875 252.792969 C 224.050781 252.480469 223.117188 252.964844 223.578125 253.5625 C 227.21875 258.242188 235.613281 259.207031 240.261719 255.691406 Z M 247.558594 235.75 C 247.71875 233.246094 247.046875 230.363281 244.835938 229.175781 C 242.195312 227.761719 238.996094 229.496094 236.617188 231.332031 C 235.285156 232.351562 233.828125 233.464844 232.285156 234.105469 C 231.292969 233.59375 230.339844 232.929688 229.480469 232.277344 C 227.175781 230.527344 224.316406 228.652344 221.605469 229.683594 C 219.257812 230.578125 218.175781 233.34375 218.074219 235.855469 C 217.859375 240.964844 220.78125 246.039062 225.246094 248.546875 C 229.707031 251.046875 235.488281 250.914062 239.898438 248.332031 C 244.3125 245.753906 247.242188 240.851562 247.558594 235.75 Z M 286.746094 201.804688 C 286.746094 182.148438 281.234375 166.21875 269.261719 166.21875 C 257.285156 166.21875 247.582031 182.148438 247.582031 201.804688 C 247.582031 221.457031 257.285156 237.390625 269.261719 237.390625 C 281.234375 237.390625 286.746094 221.457031 286.746094 201.804688 Z M 293.207031 167.222656 C 293.742188 167.851562 295.242188 167.230469 294.800781 166.371094 C 289.914062 156.941406 277.851562 152.265625 267.660156 153.589844 C 262.46875 154.265625 257.503906 156.441406 253.449219 159.746094 C 251.347656 161.453125 249.488281 163.4375 247.949219 165.660156 C 247.082031 166.914062 244.746094 169.710938 245.738281 171.222656 C 245.78125 171.289062 245.878906 171.285156 245.941406 171.261719 C 247.570312 170.605469 248.269531 168.144531 249.261719 166.777344 C 250.695312 164.789062 252.390625 162.988281 254.296875 161.453125 C 258.0625 158.417969 262.625 156.316406 267.429688 155.644531 C 277.734375 154.203125 286.734375 159.664062 293.207031 167.222656 Z M 296.109375 148.429688 C 301.78125 163.648438 302.855469 179.257812 299.203125 193.558594 C 298.445312 196.511719 297.476562 199.496094 296.542969 202.378906 C 294.550781 208.503906 292.496094 214.835938 292.289062 221.429688 C 292.164062 225.300781 292.683594 229.1875 293.1875 232.9375 C 293.851562 237.878906 294.476562 242.546875 293.769531 247.234375 C 292.75 254.070312 288.394531 260.539062 282.125 264.542969 C 281.804688 264.75 281.601562 265.097656 281.582031 265.476562 L 280.730469 282.707031 C 280.660156 284.179688 280.558594 285.375 279.96875 286.289062 C 278.984375 287.828125 276.730469 288.277344 274.433594 288.542969 C 270.082031 289.039062 265.65625 289.445312 261.28125 289.746094 C 258.066406 289.96875 254.839844 289.910156 252.980469 287.992188 C 251.226562 286.175781 251.246094 283.378906 251.265625 280.417969 C 251.28125 278.917969 251.289062 277.371094 251.070312 275.882812 C 250.53125 272.253906 248.363281 268.90625 245.121094 266.695312 C 244.746094 266.441406 244.257812 266.429688 243.863281 266.65625 C 240.347656 268.726562 238.042969 272.605469 237.984375 276.542969 C 237.96875 278.328125 238.347656 280.113281 238.714844 281.835938 C 239.304688 284.5625 239.851562 287.140625 238.6875 289.253906 C 237.320312 291.71875 233.96875 292.617188 231.558594 293.082031 C 226.003906 294.160156 220.332031 294.398438 214.710938 293.796875 C 212.710938 293.582031 210.675781 293.214844 209.339844 291.980469 C 207.351562 290.140625 207.433594 287.101562 207.515625 283.882812 C 207.554688 282.480469 207.59375 281.019531 207.449219 279.625 C 207.128906 276.40625 205.660156 273.292969 203.320312 270.855469 C 202.882812 270.398438 202.164062 270.371094 201.695312 270.789062 C 198.921875 273.242188 197.25 276.808594 197.210938 280.328125 C 197.191406 281.867188 197.453125 283.355469 197.703125 284.800781 C 197.878906 285.800781 198.042969 286.738281 198.117188 287.6875 C 198.21875 288.882812 198.234375 291.847656 196.375 293.351562 C 195.183594 294.304688 193.457031 294.5 191.648438 294.628906 C 185.332031 295.066406 178.925781 295.046875 172.597656 294.578125 C 169.25 294.324219 165.886719 293.78125 163.96875 291.5625 C 162.546875 289.921875 161.972656 287.425781 162.214844 283.945312 C 162.265625 283.167969 162.347656 282.371094 162.429688 281.597656 C 162.660156 279.375 162.894531 277.074219 162.492188 274.757812 C 162.441406 274.464844 162.386719 274.199219 162.316406 273.949219 C 162.214844 273.605469 161.96875 273.324219 161.640625 273.1875 C 161.492188 273.125 161.339844 273.09375 161.183594 273.09375 C 160.988281 273.09375 160.796875 273.140625 160.621094 273.234375 C 149.644531 279.1875 135.585938 280.3125 123.03125 276.242188 C 108.742188 271.613281 95.640625 260.382812 87.09375 245.449219 C 79.890625 232.859375 75.421875 217.199219 73.808594 198.90625 C 72.144531 180.089844 74.101562 161.441406 79.46875 144.988281 C 85.464844 126.609375 95.25 111.9375 108.558594 101.375 C 131.484375 83.191406 161.789062 80.066406 183.164062 80.640625 C 199.5625 81.085938 215.082031 83.664062 229.28125 88.3125 C 244.863281 93.414062 258.449219 100.886719 269.652344 110.53125 C 281.359375 120.609375 290.75 134.066406 296.109375 148.429688 " fill-opacity="1" fill-rule="nonzero"/><path fill="#ffffff" d="M 150.324219 201.804688 C 150.324219 221.457031 162.480469 237.390625 177.472656 237.390625 C 192.464844 237.390625 204.621094 221.457031 204.621094 201.804688 C 204.621094 182.148438 192.464844 166.21875 177.472656 166.21875 C 162.480469 166.21875 150.324219 182.148438 150.324219 201.804688 Z M 236.617188 231.332031 C 235.285156 232.351562 233.828125 233.464844 232.285156 234.105469 C 231.292969 233.59375 230.339844 232.929688 229.480469 232.277344 C 227.175781 230.527344 224.316406 228.652344 221.605469 229.683594 C 219.257812 230.578125 218.175781 233.34375 218.074219 235.855469 C 217.859375 240.964844 220.78125 246.039062 225.246094 248.546875 C 229.707031 251.046875 235.488281 250.914062 239.898438 248.332031 C 244.3125 245.753906 247.242188 240.851562 247.558594 235.75 C 247.71875 233.246094 247.046875 230.363281 244.835938 229.175781 C 242.195312 227.761719 238.996094 229.496094 236.617188 231.332031 Z M 269.261719 166.21875 C 281.234375 166.21875 286.746094 182.148438 286.746094 201.804688 C 286.746094 221.457031 281.234375 237.390625 269.261719 237.390625 C 257.285156 237.390625 247.582031 221.457031 247.582031 201.804688 C 247.582031 182.148438 257.285156 166.21875 269.261719 166.21875 " fill-opacity="1" fill-rule="nonzero"/><g clip-path="url(#f3f2f1dbe3)"><path fill="#ffffff" d="M 80.890625 154.433594 C 79.734375 159.074219 78.945312 163.785156 78.558594 168.550781 C 78.203125 172.917969 77.800781 177.953125 79.09375 182.199219 C 79.148438 182.386719 79.53125 182.371094 79.570312 182.175781 C 80.320312 178.414062 80.144531 174.414062 80.484375 170.597656 C 80.851562 166.476562 81.492188 162.375 82.363281 158.328125 C 84.054688 150.476562 86.777344 142.828125 90.390625 135.65625 C 97.523438 121.507812 108.417969 109.460938 121.625 100.734375 C 128.953125 95.894531 136.957031 92.328125 145.207031 89.378906 C 146.253906 89.007812 145.699219 87.625 144.675781 87.894531 C 113.386719 96.011719 88.570312 123.515625 80.890625 154.433594 Z M 175.609375 154.460938 C 162.769531 154.867188 149.976562 163.042969 145.136719 175.128906 C 144.859375 175.824219 145.984375 176.082031 146.285156 175.507812 C 152.117188 164.367188 163.5625 156.339844 176.433594 156.546875 C 188.785156 156.746094 199.515625 164.453125 205.761719 174.765625 C 206.1875 175.46875 207.617188 175.058594 207.273438 174.191406 C 202.382812 161.804688 188.6875 154.050781 175.609375 154.460938 Z M 231.503906 255.589844 C 228.855469 255.3125 226.761719 254.171875 224.546875 252.792969 C 224.050781 252.480469 223.117188 252.964844 223.578125 253.5625 C 227.21875 258.242188 235.613281 259.207031 240.261719 255.691406 C 241.285156 254.917969 240.101562 254.011719 239.183594 254.332031 C 236.6875 255.222656 234.175781 255.867188 231.503906 255.589844 Z M 267.660156 153.589844 C 262.46875 154.265625 257.503906 156.441406 253.449219 159.746094 C 251.347656 161.453125 249.488281 163.4375 247.949219 165.660156 C 247.082031 166.914062 244.746094 169.710938 245.738281 171.222656 C 245.78125 171.289062 245.878906 171.285156 245.941406 171.261719 C 247.570312 170.605469 248.269531 168.144531 249.261719 166.777344 C 250.695312 164.789062 252.390625 162.988281 254.296875 161.453125 C 258.0625 158.417969 262.625 156.316406 267.429688 155.644531 C 277.734375 154.203125 286.734375 159.664062 293.207031 167.222656 C 293.742188 167.851562 295.242188 167.230469 294.800781 166.371094 C 289.914062 156.941406 277.851562 152.265625 267.660156 153.589844 Z M 299.203125 193.558594 C 302.855469 179.257812 301.78125 163.648438 296.109375 148.429688 C 290.75 134.066406 281.359375 120.609375 269.652344 110.53125 C 258.449219 100.886719 244.863281 93.414062 229.28125 88.3125 C 215.082031 83.664062 199.5625 81.085938 183.164062 80.640625 C 161.789062 80.066406 131.484375 83.191406 108.558594 101.375 C 95.25 111.9375 85.464844 126.609375 79.46875 144.988281 C 74.101562 161.441406 72.144531 180.089844 73.808594 198.90625 C 75.421875 217.199219 79.890625 232.859375 87.09375 245.449219 C 95.640625 260.382812 108.742188 271.613281 123.03125 276.242188 C 135.585938 280.3125 149.644531 279.1875 160.621094 273.234375 C 160.796875 273.140625 160.988281 273.09375 161.183594 273.09375 C 161.339844 273.09375 161.492188 273.125 161.640625 273.1875 C 161.96875 273.324219 162.214844 273.605469 162.316406 273.949219 C 162.386719 274.199219 162.441406 274.464844 162.492188 274.757812 C 162.894531 277.074219 162.660156 279.375 162.429688 281.597656 C 162.347656 282.371094 162.265625 283.167969 162.214844 283.945312 C 161.972656 287.425781 162.546875 289.921875 163.96875 291.5625 C 165.886719 293.78125 169.25 294.324219 172.597656 294.578125 C 178.925781 295.046875 185.332031 295.066406 191.648438 294.628906 C 193.457031 294.5 195.183594 294.304688 196.375 293.351562 C 198.234375 291.847656 198.21875 288.882812 198.117188 287.6875 C 198.042969 286.738281 197.878906 285.800781 197.703125 284.800781 C 197.453125 283.355469 197.191406 281.867188 197.210938 280.328125 C 197.25 276.808594 198.921875 273.242188 201.695312 270.789062 C 202.164062 270.371094 202.882812 270.398438 203.320312 270.855469 C 205.660156 273.292969 207.128906 276.40625 207.449219 279.625 C 207.59375 281.019531 207.554688 282.480469 207.515625 283.882812 C 207.433594 287.101562 207.351562 290.140625 209.339844 291.980469 C 210.675781 293.214844 212.710938 293.582031 214.710938 293.796875 C 220.332031 294.398438 226.003906 294.160156 231.558594 293.082031 C 233.96875 292.617188 237.320312 291.71875 238.6875 289.253906 C 239.851562 287.140625 239.304688 284.5625 238.714844 281.835938 C 238.347656 280.113281 237.96875 278.328125 237.984375 276.542969 C 238.042969 272.605469 240.347656 268.726562 243.863281 266.65625 C 244.257812 266.429688 244.746094 266.441406 245.121094 266.695312 C 248.363281 268.90625 250.53125 272.253906 251.070312 275.882812 C 251.289062 277.371094 251.28125 278.917969 251.265625 280.417969 C 251.246094 283.378906 251.226562 286.175781 252.980469 287.992188 C 254.839844 289.910156 258.066406 289.96875 261.28125 289.746094 C 265.65625 289.445312 270.082031 289.039062 274.433594 288.542969 C 276.730469 288.277344 278.984375 287.828125 279.96875 286.289062 C 280.558594 285.375 280.660156 284.179688 280.730469 282.707031 L 281.582031 265.476562 C 281.601562 265.097656 281.804688 264.75 282.125 264.542969 C 288.394531 260.539062 292.75 254.070312 293.769531 247.234375 C 294.476562 242.546875 293.851562 237.878906 293.1875 232.9375 C 292.683594 229.1875 292.164062 225.300781 292.289062 221.429688 C 292.496094 214.835938 294.550781 208.503906 296.542969 202.378906 C 297.476562 199.496094 298.445312 196.511719 299.203125 193.558594 Z M 298.3125 147.609375 C 304.160156 163.28125 305.25 179.371094 301.480469 194.136719 C 300.710938 197.167969 299.726562 200.183594 298.78125 203.105469 C 296.839844 209.070312 294.835938 215.242188 294.636719 221.503906 C 294.519531 225.183594 295.027344 228.964844 295.515625 232.625 C 296.175781 237.511719 296.851562 242.5625 296.101562 247.585938 C 295.007812 254.894531 290.464844 261.804688 283.902344 266.191406 L 283.078125 282.828125 C 283.007812 284.261719 282.921875 286.050781 281.945312 287.5625 C 280.4375 289.921875 277.570312 290.550781 274.699219 290.878906 C 270.3125 291.382812 265.851562 291.792969 261.445312 292.09375 C 257.664062 292.351562 253.820312 292.234375 251.292969 289.628906 C 248.867188 287.117188 248.890625 283.703125 248.914062 280.398438 C 248.925781 278.992188 248.9375 277.535156 248.742188 276.226562 C 248.34375 273.523438 246.746094 270.90625 244.417969 269.097656 C 241.957031 270.820312 240.378906 273.683594 240.335938 276.570312 C 240.320312 278.09375 240.675781 279.746094 241.015625 281.339844 C 241.667969 284.375 242.34375 287.507812 240.742188 290.390625 C 238.90625 293.71875 234.875 294.835938 232.007812 295.390625 C 226.222656 296.511719 220.3125 296.761719 214.457031 296.140625 C 212.054688 295.875 209.582031 295.402344 207.742188 293.707031 C 204.976562 291.144531 205.070312 287.421875 205.164062 283.824219 C 205.203125 282.425781 205.234375 281.105469 205.109375 279.859375 C 204.878906 277.539062 203.929688 275.277344 202.410156 273.382812 C 200.636719 275.328125 199.585938 277.863281 199.5625 280.355469 C 199.542969 281.679688 199.773438 283 200.019531 284.398438 C 200.199219 285.402344 200.375 286.4375 200.464844 287.492188 C 200.621094 289.453125 200.492188 293.054688 197.851562 295.179688 C 196.132812 296.5625 193.921875 296.828125 191.808594 296.976562 C 188.726562 297.1875 185.617188 297.296875 182.507812 297.296875 C 179.140625 297.296875 175.769531 297.171875 172.425781 296.921875 C 168.566406 296.632812 164.664062 295.964844 162.183594 293.101562 C 160.339844 290.960938 159.582031 287.917969 159.863281 283.785156 C 159.921875 282.972656 160.007812 282.148438 160.085938 281.355469 C 160.28125 279.515625 160.457031 277.761719 160.296875 276.054688 C 148.988281 281.640625 134.925781 282.566406 122.308594 278.480469 C 107.46875 273.667969 93.886719 262.054688 85.050781 246.621094 C 77.679688 233.730469 73.109375 217.75 71.464844 199.113281 C 69.773438 179.980469 71.769531 161.015625 77.234375 144.257812 C 83.371094 125.433594 93.417969 110.386719 107.09375 99.539062 C 130.578125 80.910156 161.457031 77.703125 183.226562 78.289062 C 199.847656 78.742188 215.59375 81.363281 230.019531 86.078125 C 245.894531 91.269531 259.742188 98.898438 271.191406 108.75 C 283.1875 119.078125 292.820312 132.875 298.3125 147.609375 " fill-opacity="1" fill-rule="nonzero"/></g></svg>