<svg xmlns="http://www.w3.org/2000/svg" xmlns:xlink="http://www.w3.org/1999/xlink" width="500" zoomAndPan="magnify" viewBox="0 0 375 374.999991" height="500" preserveAspectRatio="xMidYMid meet" version="1.0"><defs><g/><clipPath id="39e5e63123"><path d="M 110 57 L 265 57 L 265 201.746094 L 110 201.746094 Z M 110 57 " clip-rule="nonzero"/></clipPath><clipPath id="3dec89c8b6"><path d="M 110 57 L 265 57 L 265 201.746094 L 110 201.746094 Z M 110 57 " clip-rule="nonzero"/></clipPath></defs><g clip-path="url(#39e5e63123)"><path fill="#ffffff" d="M 260.628906 103.128906 C 257.003906 93.40625 250.648438 84.300781 242.730469 77.480469 C 235.175781 70.980469 226.035156 65.949219 215.558594 62.523438 C 206.039062 59.410156 195.648438 57.679688 184.679688 57.382812 C 170.3125 56.992188 149.933594 59.109375 134.4375 71.40625 C 125.414062 78.5625 118.78125 88.492188 114.730469 100.917969 C 111.125 111.976562 109.804688 124.492188 110.925781 137.117188 C 112.007812 149.417969 115.027344 159.960938 119.890625 168.46875 C 125.71875 178.65625 134.683594 186.320312 144.476562 189.496094 C 152.800781 192.191406 162.085938 191.582031 169.546875 187.894531 C 169.652344 189.019531 169.535156 190.179688 169.410156 191.390625 C 169.355469 191.917969 169.300781 192.460938 169.261719 192.996094 C 169.078125 195.722656 169.574219 197.730469 170.792969 199.144531 C 172.429688 201.035156 175.003906 201.476562 177.550781 201.664062 C 179.757812 201.832031 181.984375 201.914062 184.203125 201.914062 C 186.257812 201.914062 188.308594 201.84375 190.34375 201.703125 C 191.738281 201.601562 193.199219 201.429688 194.332031 200.515625 C 196.074219 199.113281 196.160156 196.738281 196.058594 195.445312 C 195.996094 194.746094 195.878906 194.0625 195.761719 193.402344 C 195.601562 192.480469 195.449219 191.605469 195.460938 190.734375 C 195.476562 189.089844 196.167969 187.417969 197.339844 186.128906 C 198.339844 187.382812 198.96875 188.875 199.121094 190.40625 C 199.203125 191.226562 199.183594 192.101562 199.15625 193.023438 C 199.097656 195.398438 199.035156 197.851562 200.859375 199.542969 C 202.074219 200.660156 203.707031 200.976562 205.289062 201.148438 C 209.152344 201.558594 213.054688 201.394531 216.871094 200.65625 C 218.765625 200.289062 221.425781 199.550781 222.636719 197.355469 C 223.691406 195.453125 223.25 193.386719 222.816406 191.382812 C 222.59375 190.332031 222.355469 189.242188 222.371094 188.234375 C 222.398438 186.328125 223.4375 184.441406 225.0625 183.304688 C 226.597656 184.496094 227.652344 186.222656 227.914062 188.007812 C 228.042969 188.871094 228.039062 189.835938 228.027344 190.761719 C 228.011719 192.941406 227.996094 195.195312 229.601562 196.851562 C 231.265625 198.574219 233.804688 198.648438 236.300781 198.480469 C 239.207031 198.28125 242.148438 198.011719 245.046875 197.679688 C 246.941406 197.460938 248.832031 197.046875 249.828125 195.488281 C 250.472656 194.492188 250.53125 193.3125 250.578125 192.363281 L 251.121094 181.386719 C 255.449219 178.492188 258.449219 173.929688 259.171875 169.105469 C 259.664062 165.792969 259.21875 162.460938 258.785156 159.234375 C 258.460938 156.816406 258.125 154.324219 258.203125 151.894531 C 258.335938 147.761719 259.65625 143.691406 260.9375 139.753906 C 261.5625 137.824219 262.210938 135.832031 262.71875 133.832031 C 265.207031 124.089844 264.488281 113.472656 260.628906 103.128906 " fill-opacity="1" fill-rule="nonzero"/></g><path fill="#000000" d="M 159.589844 64.699219 C 160.277344 64.457031 159.914062 63.542969 159.238281 63.722656 C 138.589844 69.074219 122.210938 87.226562 117.144531 107.632812 C 116.382812 110.695312 115.859375 113.804688 115.605469 116.949219 C 115.371094 119.828125 115.105469 123.15625 115.957031 125.953125 C 115.992188 126.078125 116.246094 126.070312 116.273438 125.9375 C 116.765625 123.457031 116.652344 120.820312 116.875 118.300781 C 117.117188 115.578125 117.539062 112.871094 118.113281 110.203125 C 119.230469 105.023438 121.03125 99.972656 123.414062 95.238281 C 128.121094 85.902344 135.308594 77.953125 144.027344 72.191406 C 148.863281 69 154.144531 66.648438 159.589844 64.699219 Z M 198.796875 138.894531 C 198.796875 125.921875 190.777344 115.410156 180.882812 115.410156 C 170.988281 115.410156 162.96875 125.921875 162.96875 138.894531 C 162.96875 151.863281 170.988281 162.378906 180.882812 162.378906 C 190.777344 162.378906 198.796875 151.863281 198.796875 138.894531 Z M 199.550781 121.050781 C 199.832031 121.515625 200.777344 121.242188 200.546875 120.671875 C 197.320312 112.496094 188.285156 107.378906 179.652344 107.652344 C 171.179688 107.917969 162.738281 113.3125 159.542969 121.289062 C 159.359375 121.746094 160.101562 121.917969 160.300781 121.539062 C 164.148438 114.1875 171.703125 108.890625 180.195312 109.027344 C 188.347656 109.15625 195.429688 114.246094 199.550781 121.050781 Z M 222.320312 174.457031 C 222.992188 173.945312 222.214844 173.347656 221.609375 173.558594 C 219.960938 174.148438 218.304688 174.574219 216.539062 174.390625 C 214.792969 174.207031 213.410156 173.453125 211.949219 172.542969 C 211.621094 172.335938 211.003906 172.65625 211.308594 173.050781 C 213.710938 176.140625 219.253906 176.777344 222.320312 174.457031 Z M 227.136719 161.296875 C 227.242188 159.644531 226.796875 157.742188 225.339844 156.957031 C 223.597656 156.023438 221.484375 157.167969 219.914062 158.378906 C 219.035156 159.054688 218.074219 159.785156 217.054688 160.210938 C 216.398438 159.871094 215.773438 159.433594 215.203125 159.003906 C 213.683594 157.847656 211.796875 156.613281 210.007812 157.292969 C 208.457031 157.882812 207.746094 159.710938 207.675781 161.367188 C 207.535156 164.738281 209.464844 168.085938 212.410156 169.742188 C 215.355469 171.390625 219.167969 171.304688 222.082031 169.601562 C 224.992188 167.898438 226.925781 164.664062 227.136719 161.296875 Z M 252.996094 138.894531 C 252.996094 125.921875 249.359375 115.410156 241.460938 115.410156 C 233.554688 115.410156 227.152344 125.921875 227.152344 138.894531 C 227.152344 151.863281 233.554688 162.378906 241.460938 162.378906 C 249.359375 162.378906 252.996094 151.863281 252.996094 138.894531 Z M 257.261719 116.074219 C 257.613281 116.484375 258.605469 116.078125 258.3125 115.511719 C 255.085938 109.285156 247.128906 106.199219 240.398438 107.074219 C 236.976562 107.519531 233.699219 108.957031 231.023438 111.136719 C 229.636719 112.265625 228.410156 113.574219 227.390625 115.042969 C 226.820312 115.867188 225.277344 117.714844 225.933594 118.710938 C 225.960938 118.753906 226.027344 118.753906 226.066406 118.738281 C 227.144531 118.304688 227.605469 116.679688 228.257812 115.777344 C 229.203125 114.464844 230.324219 113.277344 231.582031 112.265625 C 234.066406 110.261719 237.078125 108.875 240.246094 108.429688 C 247.050781 107.480469 252.988281 111.082031 257.261719 116.074219 Z M 259.175781 103.671875 C 262.917969 113.714844 263.628906 124.015625 261.21875 133.453125 C 260.71875 135.402344 260.078125 137.371094 259.460938 139.273438 C 258.148438 143.3125 256.789062 147.492188 256.65625 151.84375 C 256.570312 154.398438 256.914062 156.964844 257.246094 159.441406 C 257.6875 162.699219 258.097656 165.78125 257.632812 168.875 C 256.960938 173.386719 254.085938 177.65625 249.945312 180.296875 C 249.734375 180.433594 249.601562 180.664062 249.589844 180.914062 L 249.027344 192.285156 C 248.980469 193.257812 248.910156 194.046875 248.523438 194.648438 C 247.875 195.664062 246.386719 195.960938 244.871094 196.136719 C 242 196.464844 239.078125 196.730469 236.191406 196.929688 C 234.070312 197.074219 231.941406 197.039062 230.714844 195.773438 C 229.558594 194.574219 229.570312 192.726562 229.582031 190.773438 C 229.589844 189.785156 229.597656 188.761719 229.453125 187.78125 C 229.097656 185.386719 227.667969 183.179688 225.527344 181.71875 C 225.277344 181.550781 224.957031 181.542969 224.695312 181.695312 C 222.375 183.058594 220.855469 185.617188 220.816406 188.214844 C 220.804688 189.394531 221.054688 190.574219 221.296875 191.707031 C 221.6875 193.507812 222.050781 195.210938 221.28125 196.605469 C 220.378906 198.230469 218.167969 198.824219 216.578125 199.132812 C 212.910156 199.84375 209.164062 200 205.457031 199.601562 C 204.136719 199.460938 202.792969 199.21875 201.910156 198.40625 C 200.601562 197.191406 200.652344 195.1875 200.710938 193.0625 C 200.734375 192.132812 200.757812 191.171875 200.667969 190.25 C 200.453125 188.125 199.484375 186.070312 197.941406 184.464844 C 197.652344 184.164062 197.175781 184.144531 196.867188 184.417969 C 195.039062 186.039062 193.933594 188.394531 193.90625 190.714844 C 193.894531 191.730469 194.066406 192.714844 194.234375 193.667969 C 194.347656 194.324219 194.457031 194.945312 194.507812 195.570312 C 194.574219 196.363281 194.585938 198.316406 193.355469 199.308594 C 192.570312 199.9375 191.429688 200.070312 190.234375 200.152344 C 186.070312 200.441406 181.84375 200.429688 177.664062 200.117188 C 175.453125 199.953125 173.234375 199.59375 171.96875 198.128906 C 171.03125 197.046875 170.652344 195.398438 170.8125 193.101562 C 170.847656 192.589844 170.902344 192.0625 170.953125 191.554688 C 171.105469 190.085938 171.261719 188.566406 170.996094 187.039062 C 170.964844 186.84375 170.925781 186.671875 170.878906 186.503906 C 170.8125 186.28125 170.652344 186.09375 170.433594 186.003906 C 170.335938 185.960938 170.234375 185.941406 170.132812 185.941406 C 170.003906 185.941406 169.875 185.972656 169.761719 186.035156 C 162.515625 189.960938 153.242188 190.703125 144.953125 188.019531 C 135.523438 184.960938 126.878906 177.550781 121.238281 167.695312 C 116.484375 159.390625 113.535156 149.054688 112.46875 136.980469 C 111.371094 124.5625 112.664062 112.257812 116.203125 101.398438 C 120.164062 89.269531 126.621094 79.585938 135.402344 72.617188 C 150.535156 60.617188 170.53125 58.554688 184.636719 58.933594 C 195.460938 59.226562 205.703125 60.929688 215.074219 63.996094 C 225.355469 67.363281 234.320312 72.292969 241.714844 78.660156 C 249.441406 85.308594 255.640625 94.191406 259.175781 103.671875 " fill-opacity="1" fill-rule="nonzero"/><path fill="#ffffff" d="M 162.96875 138.894531 C 162.96875 151.863281 170.988281 162.378906 180.882812 162.378906 C 190.777344 162.378906 198.796875 151.863281 198.796875 138.894531 C 198.796875 125.921875 190.777344 115.410156 180.882812 115.410156 C 170.988281 115.410156 162.96875 125.921875 162.96875 138.894531 Z M 219.914062 158.378906 C 219.035156 159.054688 218.074219 159.785156 217.054688 160.210938 C 216.398438 159.871094 215.773438 159.433594 215.203125 159.003906 C 213.683594 157.847656 211.796875 156.613281 210.007812 157.292969 C 208.457031 157.882812 207.746094 159.710938 207.675781 161.367188 C 207.535156 164.738281 209.464844 168.085938 212.410156 169.742188 C 215.355469 171.390625 219.167969 171.304688 222.082031 169.601562 C 224.992188 167.898438 226.925781 164.664062 227.136719 161.296875 C 227.242188 159.644531 226.796875 157.742188 225.339844 156.957031 C 223.597656 156.023438 221.484375 157.167969 219.914062 158.378906 Z M 241.460938 115.410156 C 249.359375 115.410156 252.996094 125.921875 252.996094 138.894531 C 252.996094 151.863281 249.359375 162.378906 241.460938 162.378906 C 233.554688 162.378906 227.152344 151.863281 227.152344 138.894531 C 227.152344 125.921875 233.554688 115.410156 241.460938 115.410156 " fill-opacity="1" fill-rule="nonzero"/><g clip-path="url(#3dec89c8b6)"><path fill="#ffffff" d="M 117.144531 107.632812 C 116.382812 110.695312 115.859375 113.804688 115.605469 116.949219 C 115.371094 119.828125 115.105469 123.15625 115.957031 125.953125 C 115.992188 126.078125 116.246094 126.070312 116.273438 125.9375 C 116.765625 123.457031 116.652344 120.820312 116.875 118.300781 C 117.117188 115.578125 117.539062 112.871094 118.113281 110.203125 C 119.230469 105.023438 121.03125 99.972656 123.414062 95.238281 C 128.121094 85.902344 135.308594 77.953125 144.027344 72.191406 C 148.863281 69 154.144531 66.648438 159.589844 64.699219 C 160.277344 64.457031 159.914062 63.542969 159.238281 63.722656 C 138.589844 69.074219 122.210938 87.226562 117.144531 107.632812 Z M 179.652344 107.652344 C 171.179688 107.917969 162.738281 113.3125 159.542969 121.289062 C 159.359375 121.746094 160.101562 121.917969 160.300781 121.539062 C 164.148438 114.1875 171.703125 108.890625 180.195312 109.027344 C 188.347656 109.15625 195.429688 114.246094 199.550781 121.050781 C 199.832031 121.515625 200.777344 121.242188 200.546875 120.671875 C 197.320312 112.496094 188.285156 107.378906 179.652344 107.652344 Z M 216.539062 174.390625 C 214.792969 174.207031 213.410156 173.453125 211.949219 172.542969 C 211.621094 172.335938 211.003906 172.65625 211.308594 173.050781 C 213.710938 176.140625 219.253906 176.777344 222.320312 174.457031 C 222.992188 173.945312 222.214844 173.347656 221.609375 173.558594 C 219.960938 174.148438 218.304688 174.574219 216.539062 174.390625 Z M 240.398438 107.074219 C 236.976562 107.519531 233.699219 108.957031 231.023438 111.136719 C 229.636719 112.265625 228.410156 113.574219 227.390625 115.042969 C 226.820312 115.867188 225.277344 117.714844 225.933594 118.710938 C 225.960938 118.753906 226.027344 118.753906 226.066406 118.738281 C 227.144531 118.304688 227.605469 116.679688 228.257812 115.777344 C 229.203125 114.464844 230.324219 113.277344 231.582031 112.265625 C 234.066406 110.261719 237.078125 108.875 240.246094 108.429688 C 247.050781 107.480469 252.988281 111.082031 257.261719 116.074219 C 257.613281 116.484375 258.605469 116.078125 258.3125 115.511719 C 255.085938 109.285156 247.128906 106.199219 240.398438 107.074219 Z M 261.21875 133.453125 C 263.628906 124.015625 262.917969 113.714844 259.175781 103.671875 C 255.640625 94.191406 249.441406 85.308594 241.714844 78.660156 C 234.320312 72.292969 225.355469 67.363281 215.074219 63.996094 C 205.703125 60.929688 195.460938 59.226562 184.636719 58.933594 C 170.53125 58.554688 150.535156 60.617188 135.402344 72.617188 C 126.621094 79.585938 120.164062 89.269531 116.203125 101.398438 C 112.664062 112.257812 111.371094 124.5625 112.46875 136.980469 C 113.535156 149.054688 116.484375 159.390625 121.238281 167.695312 C 126.878906 177.550781 135.523438 184.960938 144.953125 188.019531 C 153.242188 190.703125 162.515625 189.960938 169.761719 186.035156 C 169.875 185.972656 170.003906 185.941406 170.132812 185.941406 C 170.234375 185.941406 170.335938 185.960938 170.433594 186.003906 C 170.652344 186.09375 170.8125 186.28125 170.878906 186.503906 C 170.925781 186.671875 170.964844 186.84375 170.996094 187.039062 C 171.261719 188.566406 171.105469 190.085938 170.953125 191.554688 C 170.902344 192.0625 170.847656 192.589844 170.8125 193.101562 C 170.652344 195.398438 171.03125 197.046875 171.96875 198.128906 C 173.234375 199.59375 175.453125 199.953125 177.664062 200.117188 C 181.84375 200.429688 186.070312 200.441406 190.234375 200.152344 C 191.429688 200.070312 192.570312 199.9375 193.355469 199.308594 C 194.585938 198.316406 194.574219 196.363281 194.507812 195.570312 C 194.457031 194.945312 194.347656 194.324219 194.234375 193.667969 C 194.066406 192.714844 193.894531 191.730469 193.90625 190.714844 C 193.933594 188.394531 195.039062 186.039062 196.867188 184.417969 C 197.175781 184.144531 197.652344 184.164062 197.941406 184.464844 C 199.484375 186.070312 200.453125 188.125 200.667969 190.25 C 200.757812 191.171875 200.734375 192.132812 200.710938 193.0625 C 200.652344 195.1875 200.601562 197.191406 201.910156 198.40625 C 202.792969 199.21875 204.136719 199.460938 205.457031 199.601562 C 209.164062 200 212.910156 199.84375 216.578125 199.132812 C 218.167969 198.824219 220.378906 198.230469 221.28125 196.605469 C 222.050781 195.210938 221.6875 193.507812 221.296875 191.707031 C 221.054688 190.574219 220.804688 189.394531 220.816406 188.214844 C 220.855469 185.617188 222.375 183.058594 224.695312 181.695312 C 224.957031 181.542969 225.277344 181.550781 225.527344 181.71875 C 227.667969 183.179688 229.097656 185.386719 229.453125 187.78125 C 229.597656 188.761719 229.589844 189.785156 229.582031 190.773438 C 229.570312 192.726562 229.558594 194.574219 230.714844 195.773438 C 231.941406 197.039062 234.070312 197.074219 236.191406 196.929688 C 239.078125 196.730469 242 196.464844 244.871094 196.136719 C 246.386719 195.960938 247.875 195.664062 248.523438 194.648438 C 248.910156 194.046875 248.980469 193.257812 249.027344 192.285156 L 249.589844 180.914062 C 249.601562 180.664062 249.734375 180.433594 249.945312 180.296875 C 254.085938 177.65625 256.960938 173.386719 257.632812 168.875 C 258.097656 165.78125 257.6875 162.699219 257.246094 159.441406 C 256.914062 156.964844 256.570312 154.398438 256.65625 151.84375 C 256.789062 147.492188 258.148438 143.3125 259.460938 139.273438 C 260.078125 137.371094 260.71875 135.402344 261.21875 133.453125 Z M 260.628906 103.128906 C 264.488281 113.472656 265.207031 124.089844 262.71875 133.832031 C 262.210938 135.832031 261.5625 137.824219 260.9375 139.753906 C 259.65625 143.691406 258.335938 147.761719 258.203125 151.894531 C 258.125 154.324219 258.460938 156.816406 258.785156 159.234375 C 259.21875 162.460938 259.664062 165.792969 259.171875 169.105469 C 258.449219 173.929688 255.449219 178.492188 251.121094 181.386719 L 250.578125 192.363281 C 250.53125 193.3125 250.472656 194.492188 249.828125 195.488281 C 248.832031 197.046875 246.941406 197.460938 245.046875 197.679688 C 242.148438 198.011719 239.207031 198.28125 236.300781 198.480469 C 233.804688 198.648438 231.265625 198.574219 229.601562 196.851562 C 227.996094 195.195312 228.011719 192.941406 228.027344 190.761719 C 228.039062 189.835938 228.042969 188.871094 227.914062 188.007812 C 227.652344 186.222656 226.597656 184.496094 225.0625 183.304688 C 223.4375 184.441406 222.398438 186.328125 222.371094 188.234375 C 222.355469 189.242188 222.59375 190.332031 222.816406 191.382812 C 223.25 193.386719 223.691406 195.453125 222.636719 197.355469 C 221.425781 199.550781 218.765625 200.289062 216.871094 200.65625 C 213.054688 201.394531 209.152344 201.558594 205.289062 201.148438 C 203.707031 200.976562 202.074219 200.660156 200.859375 199.542969 C 199.035156 197.851562 199.097656 195.398438 199.15625 193.023438 C 199.183594 192.101562 199.203125 191.226562 199.121094 190.40625 C 198.96875 188.875 198.339844 187.382812 197.339844 186.128906 C 196.167969 187.417969 195.476562 189.089844 195.460938 190.734375 C 195.449219 191.605469 195.601562 192.480469 195.761719 193.402344 C 195.878906 194.0625 195.996094 194.746094 196.058594 195.445312 C 196.160156 196.738281 196.074219 199.113281 194.332031 200.515625 C 193.199219 201.429688 191.738281 201.601562 190.34375 201.703125 C 188.308594 201.84375 186.257812 201.914062 184.203125 201.914062 C 181.984375 201.914062 179.757812 201.832031 177.550781 201.664062 C 175.003906 201.476562 172.429688 201.035156 170.792969 199.144531 C 169.574219 197.730469 169.078125 195.722656 169.261719 192.996094 C 169.300781 192.460938 169.355469 191.917969 169.410156 191.390625 C 169.535156 190.179688 169.652344 189.019531 169.546875 187.894531 C 162.085938 191.582031 152.800781 192.191406 144.476562 189.496094 C 134.683594 186.320312 125.71875 178.65625 119.890625 168.46875 C 115.027344 159.960938 112.007812 149.417969 110.925781 137.117188 C 109.804688 124.492188 111.125 111.976562 114.730469 100.917969 C 118.78125 88.492188 125.414062 78.5625 134.4375 71.40625 C 149.933594 59.109375 170.3125 56.992188 184.679688 57.382812 C 195.648438 57.679688 206.039062 59.410156 215.558594 62.523438 C 226.035156 65.949219 235.175781 70.980469 242.730469 77.480469 C 250.648438 84.300781 257.003906 93.40625 260.628906 103.128906 " fill-opacity="1" fill-rule="nonzero"/></g><g fill="#000000" fill-opacity="1"><g transform="translate(73.690622, 270.00576)"><g><path d="M 25.316406 0 L 18.660156 0 L 18.660156 -38.40625 L 2.386719 -38.40625 L 2.386719 -47.230469 L 22.929688 -47.230469 L 27.628906 -51.933594 L 48.53125 -51.933594 L 48.53125 -38.40625 L 32.1875 -38.40625 L 32.1875 -29.222656 L 25.316406 -22.347656 Z M 32.1875 0 L 27.050781 0 L 27.050781 -21.191406 L 32.1875 -26.398438 Z M 21.84375 -48.964844 L 2.386719 -48.964844 L 2.386719 -51.933594 L 24.808594 -51.933594 Z M 21.84375 -48.964844 "/></g></g></g><g fill="#000000" fill-opacity="1"><g transform="translate(122.215813, 270.00576)"><g><path d="M 59.671875 0 L 59.671875 -7.015625 L 53.378906 -13.308594 L 53.378906 -37.394531 L 59.671875 -43.613281 L 59.671875 -51.933594 L 33.777344 -51.933594 L 13.960938 -32.113281 L 13.960938 -12.65625 L 7.234375 -5.859375 L 7.234375 0 L 20.6875 0 L 20.6875 -18.878906 L 46.144531 -18.878906 L 46.144531 0 Z M 7.234375 -8.679688 L 12.296875 -13.742188 L 12.296875 -30.378906 L 7.234375 -25.316406 Z M 59.671875 -9.835938 L 59.671875 -40.867188 L 55.113281 -36.308594 L 55.113281 -14.394531 Z M 46.144531 -32.332031 L 33.269531 -32.332031 L 39.347656 -38.40625 L 46.144531 -38.40625 Z M 46.144531 -32.332031 "/></g></g></g><g fill="#000000" fill-opacity="1"><g transform="translate(181.877932, 270.00576)"><g><path d="M 45.929688 -44.554688 L 52.4375 -50.992188 L 52.4375 -51.933594 L 47.375 -51.933594 L 40.285156 -44.554688 Z M 58.152344 0 L 53.738281 -4.410156 L 53.738281 -25.242188 L 46.652344 -32.113281 L 53.015625 -38.40625 L 59.742188 -38.40625 L 59.742188 -51.933594 L 54.101562 -51.933594 L 54.101562 -49.90625 L 47.011719 -42.820312 L 38.550781 -42.820312 L 28.351562 -32.332031 L 20.6875 -32.332031 L 20.6875 -45.0625 L 15.839844 -49.90625 L 15.839844 -51.933594 L 7.234375 -51.933594 L 7.234375 -43.832031 L 8.96875 -43.832031 L 16.058594 -36.742188 L 16.058594 -12.65625 L 8.96875 -5.570312 L 7.234375 -5.570312 L 7.234375 0 L 20.6875 0 L 20.6875 -18.878906 L 46.289062 -18.878906 L 46.289062 0 Z M 7.882812 -7.304688 L 14.394531 -13.742188 L 14.394531 -35.65625 L 7.882812 -42.09375 L 7.234375 -42.09375 L 7.234375 -7.304688 Z M 59.742188 -1.15625 L 59.742188 -19.382812 L 55.402344 -23.578125 L 55.402344 -5.496094 Z M 20.6875 -47.882812 L 20.6875 -51.933594 L 17.574219 -51.933594 L 17.574219 -50.992188 Z M 20.6875 -47.882812 "/></g></g></g><g fill="#000000" fill-opacity="1"><g transform="translate(241.612358, 270.00576)"><g><path d="M 59.671875 0 L 59.671875 -7.015625 L 53.378906 -13.308594 L 53.378906 -37.394531 L 59.671875 -43.613281 L 59.671875 -51.933594 L 33.777344 -51.933594 L 13.960938 -32.113281 L 13.960938 -12.65625 L 7.234375 -5.859375 L 7.234375 0 L 20.6875 0 L 20.6875 -18.878906 L 46.144531 -18.878906 L 46.144531 0 Z M 7.234375 -8.679688 L 12.296875 -13.742188 L 12.296875 -30.378906 L 7.234375 -25.316406 Z M 59.671875 -9.835938 L 59.671875 -40.867188 L 55.113281 -36.308594 L 55.113281 -14.394531 Z M 46.144531 -32.332031 L 33.269531 -32.332031 L 39.347656 -38.40625 L 46.144531 -38.40625 Z M 46.144531 -32.332031 "/></g></g></g><g fill="#000000" fill-opacity="1"><g transform="translate(103.509852, 308.703542)"><g><path d="M 15.546875 -3.453125 L 2.1875 -11.765625 L 17.59375 -20.0625 L 16.859375 -14.25 L 12.265625 -11.765625 L 16.265625 -9.28125 Z M 15.546875 -3.453125 "/></g></g></g><g fill="#000000" fill-opacity="1"><g transform="translate(120.30509, 308.703542)"><g><path d="M 27.265625 -16.796875 L 27.0625 -15.125 L 22.03125 -15.125 L 22.21875 -16.796875 C 22.351562 -17.921875 21.863281 -18.484375 20.75 -18.484375 L 10.671875 -18.484375 C 9.546875 -18.484375 8.914062 -17.921875 8.78125 -16.796875 L 7.546875 -6.71875 C 7.410156 -5.601562 7.898438 -5.046875 9.015625 -5.046875 L 19.09375 -5.046875 C 20.21875 -5.046875 20.847656 -5.601562 20.984375 -6.71875 L 21.1875 -8.40625 L 26.21875 -8.40625 L 26.015625 -6.71875 C 25.472656 -2.238281 22.960938 0 18.484375 0 L 8.40625 0 C 3.925781 0 1.957031 -2.238281 2.5 -6.71875 L 3.75 -16.796875 C 4.289062 -21.273438 6.804688 -23.515625 11.296875 -23.515625 L 21.375 -23.515625 C 25.851562 -23.515625 27.816406 -21.273438 27.265625 -16.796875 Z M 27.265625 -16.796875 "/></g></g></g><g fill="#000000" fill-opacity="1"><g transform="translate(147.17747, 308.703542)"><g><path d="M 20.75 -18.484375 L 10.671875 -18.484375 C 9.546875 -18.484375 8.914062 -17.921875 8.78125 -16.796875 L 7.546875 -6.71875 C 7.410156 -5.601562 7.898438 -5.046875 9.015625 -5.046875 L 19.09375 -5.046875 C 20.21875 -5.046875 20.847656 -5.601562 20.984375 -6.71875 L 22.21875 -16.796875 C 22.351562 -17.921875 21.863281 -18.484375 20.75 -18.484375 Z M 11.296875 -23.515625 L 21.375 -23.515625 C 25.851562 -23.515625 27.816406 -21.273438 27.265625 -16.796875 L 26.015625 -6.71875 C 25.472656 -2.238281 22.960938 0 18.484375 0 L 8.40625 0 C 3.925781 0 1.957031 -2.238281 2.5 -6.71875 L 3.75 -16.796875 C 4.289062 -21.273438 6.804688 -23.515625 11.296875 -23.515625 Z M 11.296875 -23.515625 "/></g></g></g><g fill="#000000" fill-opacity="1"><g transform="translate(174.049851, 308.703542)"><g><path d="M 4.5625 -23.515625 L 21.375 -23.515625 C 25.851562 -23.515625 27.816406 -21.273438 27.265625 -16.796875 L 26.015625 -6.71875 C 25.472656 -2.238281 22.960938 0 18.484375 0 L 1.6875 0 Z M 8.984375 -18.484375 L 7.34375 -5.046875 L 19.09375 -5.046875 C 20.21875 -5.046875 20.847656 -5.601562 20.984375 -6.71875 L 22.21875 -16.796875 C 22.351562 -17.921875 21.863281 -18.484375 20.75 -18.484375 Z M 8.984375 -18.484375 "/></g></g></g><g fill="#000000" fill-opacity="1"><g transform="translate(200.922231, 308.703542)"><g><path d="M 7.34375 -5.046875 L 25.828125 -5.046875 L 25.203125 0 L 1.6875 0 L 4.5625 -23.515625 L 28.09375 -23.515625 L 27.46875 -18.484375 L 8.984375 -18.484375 L 8.46875 -14.28125 L 26.953125 -14.28125 L 26.34375 -9.234375 L 7.859375 -9.234375 Z M 7.34375 -5.046875 "/></g></g></g><g fill="#000000" fill-opacity="1"><g transform="translate(227.794611, 308.703542)"><g><path d="M 31.65625 -23.515625 L 5.234375 0 L -1.875 0 L 24.53125 -23.515625 Z M 31.65625 -23.515625 "/></g></g></g><g fill="#000000" fill-opacity="1"><g transform="translate(254.666991, 308.703542)"><g><path d="M 2.09375 -3.453125 L 2.828125 -9.28125 L 7.421875 -11.765625 L 3.421875 -14.25 L 4.15625 -20.0625 L 17.5 -11.765625 Z M 2.09375 -3.453125 "/></g></g></g></svg>