<svg xmlns="http://www.w3.org/2000/svg" xmlns:xlink="http://www.w3.org/1999/xlink" width="500" zoomAndPan="magnify" viewBox="0 0 375 374.999991" height="500" preserveAspectRatio="xMidYMid meet" version="1.0"><defs><g/></defs><g fill="#000000" fill-opacity="1"><g transform="translate(50.646228, 199.577572)"><g><path d="M 30.441406 0 L 22.4375 0 L 22.4375 -46.183594 L 2.871094 -46.183594 L 2.871094 -56.792969 L 27.570312 -56.792969 L 33.222656 -62.445312 L 58.359375 -62.445312 L 58.359375 -46.183594 L 38.703125 -46.183594 L 38.703125 -35.136719 L 30.441406 -26.875 Z M 38.703125 0 L 32.527344 0 L 32.527344 -25.484375 L 38.703125 -31.746094 Z M 26.265625 -58.882812 L 2.871094 -58.882812 L 2.871094 -62.445312 L 29.832031 -62.445312 Z M 26.265625 -58.882812 "/></g></g></g><g fill="#000000" fill-opacity="1"><g transform="translate(108.996915, 199.577572)"><g><path d="M 71.753906 0 L 71.753906 -8.4375 L 64.1875 -16.003906 L 64.1875 -44.964844 L 71.753906 -52.445312 L 71.753906 -62.445312 L 40.617188 -62.445312 L 16.785156 -38.617188 L 16.785156 -15.21875 L 8.699219 -7.042969 L 8.699219 0 L 24.875 0 L 24.875 -22.699219 L 55.488281 -22.699219 L 55.488281 0 Z M 8.699219 -10.4375 L 14.785156 -16.523438 L 14.785156 -36.527344 L 8.699219 -30.441406 Z M 71.753906 -11.828125 L 71.753906 -49.140625 L 66.273438 -43.660156 L 66.273438 -17.308594 Z M 55.488281 -38.878906 L 40.007812 -38.878906 L 47.3125 -46.183594 L 55.488281 -46.183594 Z M 55.488281 -38.878906 "/></g></g></g><g fill="#000000" fill-opacity="1"><g transform="translate(180.739562, 199.577572)"><g><path d="M 55.226562 -53.574219 L 63.054688 -61.316406 L 63.054688 -62.445312 L 56.96875 -62.445312 L 48.445312 -53.574219 Z M 69.925781 0 L 64.621094 -5.304688 L 64.621094 -30.355469 L 56.097656 -38.617188 L 63.75 -46.183594 L 71.839844 -46.183594 L 71.839844 -62.445312 L 65.054688 -62.445312 L 65.054688 -60.011719 L 56.53125 -51.488281 L 46.355469 -51.488281 L 34.09375 -38.878906 L 24.875 -38.878906 L 24.875 -54.183594 L 19.046875 -60.011719 L 19.046875 -62.445312 L 8.699219 -62.445312 L 8.699219 -52.707031 L 10.785156 -52.707031 L 19.308594 -44.183594 L 19.308594 -15.21875 L 10.785156 -6.695312 L 8.699219 -6.695312 L 8.699219 0 L 24.875 0 L 24.875 -22.699219 L 55.664062 -22.699219 L 55.664062 0 Z M 9.480469 -8.785156 L 17.308594 -16.523438 L 17.308594 -42.878906 L 9.480469 -50.617188 L 8.699219 -50.617188 L 8.699219 -8.785156 Z M 71.839844 -1.390625 L 71.839844 -23.308594 L 66.621094 -28.351562 L 66.621094 -6.609375 Z M 24.875 -57.578125 L 24.875 -62.445312 L 21.132812 -62.445312 L 21.132812 -61.316406 Z M 24.875 -57.578125 "/></g></g></g><g fill="#000000" fill-opacity="1"><g transform="translate(252.569156, 199.577572)"><g><path d="M 71.753906 0 L 71.753906 -8.4375 L 64.1875 -16.003906 L 64.1875 -44.964844 L 71.753906 -52.445312 L 71.753906 -62.445312 L 40.617188 -62.445312 L 16.785156 -38.617188 L 16.785156 -15.21875 L 8.699219 -7.042969 L 8.699219 0 L 24.875 0 L 24.875 -22.699219 L 55.488281 -22.699219 L 55.488281 0 Z M 8.699219 -10.4375 L 14.785156 -16.523438 L 14.785156 -36.527344 L 8.699219 -30.441406 Z M 71.753906 -11.828125 L 71.753906 -49.140625 L 66.273438 -43.660156 L 66.273438 -17.308594 Z M 55.488281 -38.878906 L 40.007812 -38.878906 L 47.3125 -46.183594 L 55.488281 -46.183594 Z M 55.488281 -38.878906 "/></g></g></g><g fill="#000000" fill-opacity="1"><g transform="translate(86.503328, 246.111046)"><g><path d="M 18.6875 -4.15625 L 2.625 -14.140625 L 21.140625 -24.109375 L 20.28125 -17.125 L 14.75 -14.140625 L 19.546875 -11.140625 Z M 18.6875 -4.15625 "/></g></g></g><g fill="#000000" fill-opacity="1"><g transform="translate(106.699305, 246.111046)"><g><path d="M 32.78125 -20.1875 L 32.53125 -18.171875 L 26.46875 -18.171875 L 26.71875 -20.1875 C 26.875 -21.539062 26.28125 -22.21875 24.9375 -22.21875 L 12.828125 -22.21875 C 11.472656 -22.21875 10.71875 -21.539062 10.5625 -20.1875 L 9.0625 -8.078125 C 8.90625 -6.734375 9.5 -6.0625 10.84375 -6.0625 L 22.96875 -6.0625 C 24.3125 -6.0625 25.0625 -6.734375 25.21875 -8.078125 L 25.46875 -10.09375 L 31.53125 -10.09375 L 31.28125 -8.078125 C 30.625 -2.691406 27.601562 0 22.21875 0 L 10.09375 0 C 4.707031 0 2.347656 -2.691406 3.015625 -8.078125 L 4.5 -20.1875 C 5.164062 -25.570312 8.191406 -28.265625 13.578125 -28.265625 L 25.6875 -28.265625 C 31.070312 -28.265625 33.4375 -25.570312 32.78125 -20.1875 Z M 32.78125 -20.1875 "/></g></g></g><g fill="#000000" fill-opacity="1"><g transform="translate(139.012869, 246.111046)"><g><path d="M 24.9375 -22.21875 L 12.828125 -22.21875 C 11.472656 -22.21875 10.71875 -21.539062 10.5625 -20.1875 L 9.0625 -8.078125 C 8.90625 -6.734375 9.5 -6.0625 10.84375 -6.0625 L 22.96875 -6.0625 C 24.3125 -6.0625 25.0625 -6.734375 25.21875 -8.078125 L 26.71875 -20.1875 C 26.875 -21.539062 26.28125 -22.21875 24.9375 -22.21875 Z M 13.578125 -28.265625 L 25.6875 -28.265625 C 31.070312 -28.265625 33.4375 -25.570312 32.78125 -20.1875 L 31.28125 -8.078125 C 30.625 -2.691406 27.601562 0 22.21875 0 L 10.09375 0 C 4.707031 0 2.347656 -2.691406 3.015625 -8.078125 L 4.5 -20.1875 C 5.164062 -25.570312 8.191406 -28.265625 13.578125 -28.265625 Z M 13.578125 -28.265625 "/></g></g></g><g fill="#000000" fill-opacity="1"><g transform="translate(171.326432, 246.111046)"><g><path d="M 5.5 -28.265625 L 25.6875 -28.265625 C 31.070312 -28.265625 33.4375 -25.570312 32.78125 -20.1875 L 31.28125 -8.078125 C 30.625 -2.691406 27.601562 0 22.21875 0 L 2.015625 0 Z M 10.796875 -22.21875 L 8.828125 -6.0625 L 22.96875 -6.0625 C 24.3125 -6.0625 25.0625 -6.734375 25.21875 -8.078125 L 26.71875 -20.1875 C 26.875 -21.539062 26.28125 -22.21875 24.9375 -22.21875 Z M 10.796875 -22.21875 "/></g></g></g><g fill="#000000" fill-opacity="1"><g transform="translate(203.639996, 246.111046)"><g><path d="M 8.828125 -6.0625 L 31.046875 -6.0625 L 30.296875 0 L 2.015625 0 L 5.5 -28.265625 L 33.765625 -28.265625 L 33.015625 -22.21875 L 10.796875 -22.21875 L 10.171875 -17.171875 L 32.390625 -17.171875 L 31.671875 -11.109375 L 9.453125 -11.109375 Z M 8.828125 -6.0625 "/></g></g></g><g fill="#000000" fill-opacity="1"><g transform="translate(235.95356, 246.111046)"><g><path d="M 38.046875 -28.265625 L 6.296875 0 L -2.265625 0 L 29.484375 -28.265625 Z M 38.046875 -28.265625 "/></g></g></g><g fill="#000000" fill-opacity="1"><g transform="translate(268.267124, 246.111046)"><g><path d="M 2.53125 -4.15625 L 3.390625 -11.140625 L 8.921875 -14.140625 L 4.125 -17.125 L 4.984375 -24.109375 L 21.046875 -14.140625 Z M 2.53125 -4.15625 "/></g></g></g></svg>